<?xml version="1.0" encoding="utf-8"?>
<!-- Generator: Adobe Illustrator 25.0.1, SVG Export Plug-In . SVG Version: 6.00 Build 0)  -->
<svg version="1.1" id="Layer_3" xmlns="http://www.w3.org/2000/svg" xmlns:xlink="http://www.w3.org/1999/xlink" x="0px" y="0px"
	 viewBox="0 0 2228 512" style="enable-background:new 0 0 2228 512;" xml:space="preserve">
<style type="text/css">
	.st0{fill:none;stroke:#FFB4CA;stroke-width:6;stroke-linecap:round;stroke-linejoin:round;stroke-miterlimit:10;}
	.st1{fill:#FFB4CA;}
</style>
<path class="st0" d="M223.92,387.14"/>
<path class="st0" d="M196.22,315.17"/>
<path class="st0" d="M196,297"/>
<path class="st0" d="M312.18,395.48"/>
<path class="st0" d="M191.74,197.97"/>
<path class="st0" d="M215.44,141.01"/>
<path class="st0" d="M191.74,197.97l-26.39-21l-75.14,6.69l-24.18,80.5c0,0,57.13,45.48,57.13,45.48L73.3,357.23l46.36,115.51
	l111.72-0.13l55.21-52.7c0,0,26.83,18.74,26.83,18.74l91.13-218.93l32.09,56.17l67.53-28.97l-54.05-136.66
	C417.05,140.08,363.16,145.72,323,129s-59.86-52.98-61.99-97.45L125.96,89.5l27.02,68.33l62.46-16.81L191.74,197.97"/>
<path class="st0" d="M201.52,174.47"/>
<path class="st0" d="M191.74,197.97"/>
<path class="st0" d="M127.38,492"/>
<polyline class="st0" points="207.53,280.03 265.82,279.97 312.18,395.48 286.58,419.92 "/>
<path class="st0" d="M207.53,280.03"/>
<path class="st0" d="M154.11,280.1"/>
<path class="st0" d="M123.17,309.62"/>
<path class="st0" d="M231.37,472.62"/>
<polyline class="st0" points="91,360 186.77,359.89 256.04,293.76 "/>
<line class="st0" x1="226.51" y1="458.92" x2="186.77" y2="359.89"/>
<path class="st0" d="M270,40"/>
<path class="st0" d="M62.01,277.56"/>
<polyline class="st0" points="123.17,309.62 125.06,311.13 200.2,304.44 224.37,223.95 191.74,197.97 "/>
<path class="st0" d="M125.06,311.13"/>
<polyline class="st0" points="209.94,228.21 148.54,233.67 100.32,195.28 "/>
<line class="st0" x1="128.79" y1="299.44" x2="148.54" y2="233.67"/>
<path class="st0" d="M376.38,194.96"/>
<g>
	<g>
		<g>
			<path class="st1" d="M673.63,57.44c24.7,0,45.77,8.71,63.18,26.12c17.41,17.41,26.12,38.48,26.12,63.18
				c0,24.71-8.71,45.77-26.12,63.18c-17.41,17.41-38.47,26.12-63.18,26.12h-89.3v-14.96h89.3c13.39,0,25.82-3.31,37.28-9.93
				c11.46-6.62,20.5-15.66,27.12-27.12c6.62-11.46,9.93-23.89,9.93-37.28s-3.31-25.82-9.93-37.28
				c-6.62-11.46-15.67-20.5-27.12-27.12c-11.46-6.62-23.89-9.93-37.28-9.93h-89.3V57.44H673.63 M673.63,51.44h-89.3h-6v6V72.4v6h6
				h89.3c12.26,0,23.79,3.07,34.28,9.13c10.48,6.06,18.87,14.45,24.93,24.93c6.06,10.49,9.13,22.02,9.13,34.28
				c0,12.26-3.07,23.8-9.13,34.28c-6.06,10.49-14.45,18.87-24.93,24.93c-10.48,6.06-22.02,9.13-34.28,9.13h-89.3h-6v6v14.96v6h6
				h89.3c26.24,0,48.92-9.38,67.42-27.88c18.5-18.5,27.88-41.18,27.88-67.42c0-26.24-9.38-48.92-27.88-67.42
				C722.55,60.82,699.87,51.44,673.63,51.44L673.63,51.44z"/>
		</g>
		<g>
			<path class="st1" d="M937.73,57.44c13.39,0,24.81,4.73,34.27,14.18c9.45,9.45,14.18,20.87,14.18,34.27
				c0,8.48-2.05,16.34-6.14,23.55c-4.09,7.22-9.57,12.99-16.41,17.3c6.84,4.32,12.31,10.08,16.41,17.3
				c4.09,7.22,6.14,15.07,6.14,23.55v48.44h-14.96v-48.44c0-9.23-3.28-17.08-9.82-23.55c-6.55-6.47-14.44-9.71-23.66-9.71H822.54
				v81.71h-14.96v-96.89h130.15c9.23,0,17.11-3.24,23.66-9.71c6.55-6.47,9.82-14.32,9.82-23.55c0-9.23-3.28-17.11-9.82-23.66
				c-6.55-6.55-14.44-9.82-23.66-9.82H807.58V57.44H937.73 M937.73,51.44H807.58h-6v6V72.4v6h6h130.15c7.64,0,13.99,2.64,19.42,8.07
				c5.43,5.43,8.06,11.78,8.06,19.42c0,7.63-2.63,13.94-8.04,19.29c-5.43,5.37-11.79,7.98-19.44,7.98H807.58h-6v6v96.89v6h6h14.96h6
				v-6v-75.71h109.19c7.65,0,14.01,2.61,19.45,7.98c5.41,5.35,8.04,11.66,8.04,19.28v48.44v6h6h14.96h6v-6v-48.44
				c0-9.49-2.33-18.41-6.92-26.51c-3.13-5.51-7.02-10.31-11.62-14.34c4.6-4.03,8.49-8.83,11.62-14.34
				c4.59-8.1,6.92-17.02,6.92-26.51c0-14.98-5.36-27.93-15.93-38.51C965.66,56.8,952.71,51.44,937.73,51.44L937.73,51.44z"/>
		</g>
		<g>
			<path class="st1" d="M1209.42,57.44V72.4h-89.3c-13.4,0-25.82,3.31-37.28,9.93c-11.46,6.62-20.5,15.67-27.12,27.12
				c-6.62,11.46-9.93,23.89-9.93,37.28s3.31,25.82,9.93,37.28c6.62,11.46,15.66,20.5,27.12,27.12c11.46,6.62,23.89,9.93,37.28,9.93
				h89.3v14.96h-89.3c-24.71,0-45.77-8.71-63.18-26.12s-26.12-38.47-26.12-63.18c0-24.7,8.71-45.77,26.12-63.18
				c17.41-17.41,38.47-26.12,63.18-26.12H1209.42 M1142,135.58c3.13,0,5.77,1.08,7.92,3.24c2.16,2.16,3.24,4.8,3.24,7.92
				c0,3.13-1.08,5.77-3.24,7.93c-2.16,2.16-4.8,3.24-7.92,3.24s-5.77-1.08-7.92-3.24c-2.16-2.16-3.24-4.8-3.24-7.93
				c0-3.13,1.08-5.77,3.24-7.92C1136.23,136.66,1138.87,135.58,1142,135.58 M1215.42,51.44h-6h-89.3
				c-26.24,0-48.92,9.38-67.42,27.88c-18.5,18.5-27.88,41.18-27.88,67.42c0,26.24,9.38,48.92,27.88,67.42s41.18,27.88,67.42,27.88
				h89.3h6v-6v-14.96v-6h-6h-89.3c-12.27,0-23.8-3.07-34.28-9.13c-10.49-6.06-18.88-14.44-24.93-24.93
				c-6.06-10.48-9.13-22.01-9.13-34.28c0-12.26,3.07-23.8,9.13-34.28c6.06-10.48,14.44-18.87,24.93-24.93
				c10.48-6.06,22.02-9.13,34.28-9.13h89.3h6v-6V57.44V51.44L1215.42,51.44z M1142,129.58c-4.69,0-8.9,1.73-12.17,5
				c-3.27,3.27-4.99,7.47-4.99,12.17c0,4.7,1.73,8.91,5,12.17c3.26,3.26,7.47,4.99,12.16,4.99c4.69,0,8.9-1.73,12.17-4.99
				c3.27-3.27,5-7.48,5-12.17c0-4.69-1.73-8.89-4.99-12.16C1150.89,131.3,1146.69,129.58,1142,129.58L1142,129.58z"/>
		</g>
		<g>
			<path class="st1" d="M1432.66,57.44V72.4h-130.15c-9.23,0-17.12,3.28-23.66,9.82c-6.55,6.55-9.82,14.44-9.82,23.66
				c0,9.23,3.27,17.08,9.82,23.55c6.55,6.47,14.43,9.71,23.66,9.71h81.71c13.39,0,24.82,4.73,34.27,14.18
				c9.45,9.45,14.18,20.87,14.18,34.27c0,13.39-4.73,24.82-14.18,34.27c-9.45,9.45-20.87,14.18-34.27,14.18h-130.15v-14.96h130.15
				c9.23,0,17.11-3.27,23.66-9.82c6.55-6.55,9.82-14.43,9.82-23.66c0-9.23-3.27-17.08-9.82-23.55c-6.55-6.47-14.44-9.71-23.66-9.71
				h-81.71c-13.39,0-24.82-4.72-34.27-14.18c-9.45-9.45-14.18-20.87-14.18-34.27c0-13.39,4.72-24.81,14.18-34.27
				c9.45-9.45,20.87-14.18,34.27-14.18H1432.66 M1438.66,51.44h-6h-130.15c-14.98,0-27.94,5.36-38.51,15.93
				c-10.57,10.57-15.93,23.53-15.93,38.51c0,14.99,5.36,27.94,15.93,38.51c10.57,10.57,23.52,15.93,38.51,15.93h81.71
				c7.65,0,14.01,2.61,19.45,7.98c5.41,5.35,8.04,11.66,8.04,19.29c0,7.64-2.64,13.99-8.06,19.42c-5.43,5.43-11.78,8.07-19.42,8.07
				h-130.15h-6v6v14.96v6h6h130.15c14.98,0,27.94-5.36,38.51-15.93c10.57-10.57,15.93-23.53,15.93-38.51
				c0-14.98-5.36-27.93-15.93-38.51c-10.58-10.57-23.53-15.93-38.51-15.93h-81.71c-7.66,0-14.02-2.61-19.45-7.98
				c-5.41-5.35-8.04-11.66-8.04-19.29c0-7.64,2.64-13.99,8.06-19.42c5.43-5.43,11.78-8.07,19.42-8.07h130.15h6v-6V57.44V51.44
				L1438.66,51.44z"/>
		</g>
		<g>
			<path class="st1" d="M1655.91,57.44V72.4h-130.15c-9.23,0-17.12,3.28-23.66,9.82c-6.55,6.55-9.82,14.44-9.82,23.66
				c0,9.23,3.27,17.08,9.82,23.55c6.55,6.47,14.43,9.71,23.66,9.71h81.71c13.39,0,24.82,4.73,34.27,14.18
				c9.45,9.45,14.18,20.87,14.18,34.27c0,13.39-4.73,24.82-14.18,34.27c-9.45,9.45-20.87,14.18-34.27,14.18h-130.15v-14.96h130.15
				c9.23,0,17.11-3.27,23.66-9.82c6.55-6.55,9.82-14.43,9.82-23.66c0-9.23-3.27-17.08-9.82-23.55c-6.55-6.47-14.44-9.71-23.66-9.71
				h-81.71c-13.39,0-24.82-4.72-34.27-14.18c-9.45-9.45-14.18-20.87-14.18-34.27c0-13.39,4.72-24.81,14.18-34.27
				c9.45-9.45,20.87-14.18,34.27-14.18H1655.91 M1661.91,51.44h-6h-130.15c-14.98,0-27.94,5.36-38.51,15.93
				c-10.57,10.57-15.93,23.53-15.93,38.51c0,14.99,5.36,27.94,15.93,38.51c10.57,10.57,23.52,15.93,38.51,15.93h81.71
				c7.65,0,14.01,2.61,19.45,7.98c5.41,5.35,8.04,11.66,8.04,19.29c0,7.64-2.64,13.99-8.06,19.42c-5.43,5.43-11.78,8.07-19.42,8.07
				h-130.15h-6v6v14.96v6h6h130.15c14.98,0,27.94-5.36,38.51-15.93c10.57-10.57,15.93-23.53,15.93-38.51
				c0-14.98-5.36-27.93-15.93-38.51c-10.58-10.57-23.53-15.93-38.51-15.93h-81.71c-7.66,0-14.02-2.61-19.45-7.98
				c-5.41-5.35-8.04-11.66-8.04-19.29c0-7.64,2.64-13.99,8.06-19.42c5.43-5.43,11.78-8.07,19.42-8.07h130.15h6v-6V57.44V51.44
				L1661.91,51.44z"/>
		</g>
		<g>
			<path class="st1" d="M1715.51,57.44v178.6h-14.96V57.44H1715.51 M1721.51,51.44h-6h-14.96h-6v6v178.6v6h6h14.96h6v-6V57.44V51.44
				L1721.51,51.44z"/>
		</g>
		<g>
			<path class="st1" d="M1849.46,57.44c24.7,0,45.77,8.71,63.18,26.12c17.41,17.41,26.12,38.48,26.12,63.18v89.3h-14.96v-89.3
				c0-13.39-3.31-25.82-9.93-37.28c-6.62-11.46-15.66-20.5-27.12-27.12c-11.46-6.62-23.89-9.93-37.28-9.93s-25.82,3.31-37.28,9.93
				c-11.46,6.62-20.5,15.67-27.12,27.12c-6.62,11.46-9.93,23.89-9.93,37.28v89.3h-14.96v-89.3c0-24.7,8.71-45.77,26.12-63.18
				C1803.69,66.15,1824.75,57.44,1849.46,57.44 M1849.46,51.44c-26.24,0-48.92,9.38-67.42,27.88c-18.5,18.5-27.88,41.18-27.88,67.42
				v89.3v6h6h14.96h6v-6v-89.3c0-12.27,3.07-23.8,9.13-34.28c6.06-10.48,14.44-18.87,24.93-24.93c10.48-6.06,22.02-9.13,34.28-9.13
				c12.26,0,23.79,3.07,34.28,9.13c10.48,6.06,18.87,14.45,24.93,24.93c6.06,10.49,9.13,22.02,9.13,34.28v89.3v6h6h14.96h6v-6v-89.3
				c0-26.24-9.38-48.92-27.88-67.42C1898.38,60.82,1875.7,51.44,1849.46,51.44L1849.46,51.44z"/>
		</g>
		<g>
			<path class="st1" d="M2162,57.44V72.4h-89.3c-13.39,0-25.82,3.31-37.28,9.93c-11.46,6.62-20.5,15.67-27.12,27.12
				c-6.62,11.46-9.93,23.89-9.93,37.28s3.31,25.82,9.93,37.28c6.62,11.46,15.66,20.5,27.12,27.12c11.46,6.62,23.89,9.93,37.28,9.93
				h74.34v-66.75h-49.11v-15.18H2162v96.89h-89.3c-24.71,0-45.77-8.71-63.18-26.12c-17.41-17.41-26.12-38.47-26.12-63.18
				c0-24.7,8.71-45.77,26.12-63.18c17.41-17.41,38.47-26.12,63.18-26.12H2162 M2168,51.44h-6h-89.3c-26.24,0-48.92,9.38-67.42,27.88
				c-18.5,18.5-27.88,41.18-27.88,67.42c0,26.24,9.38,48.92,27.88,67.42c18.5,18.5,41.18,27.88,67.42,27.88h89.3h6v-6v-96.89v-6h-6
				h-64.07h-6v6v15.18v6h6h43.11v54.75h-68.34c-12.27,0-23.8-3.07-34.28-9.13c-10.49-6.06-18.87-14.44-24.93-24.93
				c-6.06-10.48-9.13-22.01-9.13-34.28c0-12.27,3.07-23.8,9.13-34.28c6.06-10.48,14.44-18.87,24.93-24.93
				c10.48-6.06,22.02-9.13,34.28-9.13h89.3h6v-6V57.44V51.44L2168,51.44z"/>
		</g>
		<g>
			<path class="st1" d="M762.93,276.13v14.96h-81.71v163.64h-15.18V291.09h-81.71v-14.96H762.93 M768.93,270.13h-6h-178.6h-6v6
				v14.96v6h6h75.71v157.64v6h6h15.18h6v-6V297.09h75.71h6v-6v-14.96V270.13L768.93,270.13z"/>
		</g>
		<g>
			<path class="st1" d="M863.39,276.13c24.7,0,45.77,8.71,63.18,26.12c17.41,17.41,26.12,38.47,26.12,63.18
				c0,24.71-8.71,45.77-26.12,63.18c-17.41,17.41-38.47,26.12-63.18,26.12c-24.71,0-45.77-8.71-63.18-26.12
				c-17.41-17.41-26.12-38.47-26.12-63.18c0-24.7,8.71-45.77,26.12-63.18C817.63,284.84,838.68,276.13,863.39,276.13 M863.39,439.77
				c13.39,0,25.82-3.31,37.28-9.93c11.46-6.62,20.5-15.66,27.12-27.12c6.62-11.46,9.93-23.89,9.93-37.28s-3.31-25.82-9.93-37.28
				c-6.62-11.46-15.67-20.5-27.12-27.12c-11.46-6.62-23.89-9.93-37.28-9.93c-13.39,0-25.82,3.31-37.28,9.93
				c-11.46,6.62-20.5,15.66-27.12,27.12c-6.62,11.46-9.93,23.89-9.93,37.28s3.31,25.82,9.93,37.28
				c6.62,11.46,15.66,20.5,27.12,27.12C837.57,436.46,850,439.77,863.39,439.77 M863.39,270.13c-26.24,0-48.92,9.38-67.42,27.88
				c-18.5,18.5-27.88,41.18-27.88,67.42s9.38,48.92,27.88,67.42c18.5,18.5,41.18,27.88,67.42,27.88c26.24,0,48.92-9.38,67.42-27.88
				c18.5-18.5,27.88-41.18,27.88-67.42c0-26.24-9.38-48.92-27.88-67.42C912.31,279.51,889.63,270.13,863.39,270.13L863.39,270.13z
				 M863.39,433.77c-12.27,0-23.8-3.07-34.28-9.13c-10.49-6.06-18.88-14.44-24.93-24.93c-6.06-10.48-9.13-22.01-9.13-34.28
				c0-12.26,3.07-23.8,9.13-34.28c6.06-10.48,14.45-18.87,24.93-24.93c10.48-6.06,22.02-9.13,34.28-9.13
				c12.26,0,23.79,3.07,34.28,9.13c10.48,6.06,18.87,14.45,24.93,24.93c6.06,10.49,9.13,22.02,9.13,34.28
				c0,12.26-3.07,23.8-9.13,34.28c-6.06,10.49-14.45,18.87-24.93,24.93C887.19,430.7,875.66,433.77,863.39,433.77L863.39,433.77z"/>
		</g>
		<g>
			<path class="st1" d="M1086.63,276.13c24.7,0,45.77,8.71,63.18,26.12c17.41,17.41,26.12,38.47,26.12,63.18
				c0,24.71-8.71,45.77-26.12,63.18c-17.41,17.41-38.47,26.12-63.18,26.12c-24.71,0-45.77-8.71-63.18-26.12
				c-17.41-17.41-26.12-38.47-26.12-63.18c0-24.7,8.71-45.77,26.12-63.18C1040.87,284.84,1061.93,276.13,1086.63,276.13
				 M1086.63,439.77c13.39,0,25.82-3.31,37.28-9.93c11.46-6.62,20.5-15.66,27.12-27.12c6.62-11.46,9.93-23.89,9.93-37.28
				s-3.31-25.82-9.93-37.28c-6.62-11.46-15.66-20.5-27.12-27.12c-11.46-6.62-23.89-9.93-37.28-9.93c-13.39,0-25.82,3.31-37.28,9.93
				c-11.46,6.62-20.5,15.66-27.12,27.12c-6.62,11.46-9.93,23.89-9.93,37.28s3.31,25.82,9.93,37.28
				c6.62,11.46,15.66,20.5,27.12,27.12C1060.81,436.46,1073.24,439.77,1086.63,439.77 M1086.63,270.13
				c-26.24,0-48.92,9.38-67.42,27.88c-18.5,18.5-27.88,41.18-27.88,67.42c0,26.24,9.38,48.92,27.88,67.42
				c18.5,18.5,41.18,27.88,67.42,27.88c26.24,0,48.92-9.38,67.42-27.88c18.5-18.5,27.88-41.18,27.88-67.42
				c0-26.24-9.38-48.92-27.88-67.42C1135.56,279.51,1112.87,270.13,1086.63,270.13L1086.63,270.13z M1086.63,433.77
				c-12.27,0-23.8-3.07-34.28-9.13c-10.49-6.06-18.88-14.44-24.93-24.93c-6.06-10.48-9.13-22.01-9.13-34.28
				c0-12.26,3.07-23.8,9.13-34.28c6.06-10.48,14.45-18.87,24.93-24.93c10.48-6.06,22.02-9.13,34.28-9.13
				c12.26,0,23.79,3.07,34.28,9.13c10.48,6.06,18.87,14.45,24.93,24.93c6.06,10.49,9.13,22.02,9.13,34.28
				c0,12.26-3.07,23.8-9.13,34.28c-6.06,10.49-14.45,18.87-24.93,24.93C1110.43,430.7,1098.9,433.77,1086.63,433.77L1086.63,433.77z
				"/>
		</g>
		<g>
			<path class="st1" d="M1235.54,276.13v163.64h115.19h35.05h13.4v14.96h-48.44h-130.15v-11.61v-3.35V276.13H1235.54
				 M1241.54,270.13h-6h-14.96h-6v6v163.64v3.35v11.61v6h6h130.15h48.44h6v-6v-14.96v-6h-6h-13.4h-35.05h-109.19V276.13V270.13
				L1241.54,270.13z"/>
		</g>
		<g>
			<path class="st1" d="M1622.42,276.13v14.96h-130.15c-9.23,0-17.12,3.27-23.66,9.82c-6.55,6.55-9.82,14.44-9.82,23.66
				c0,9.23,3.27,17.08,9.82,23.55c6.55,6.47,14.43,9.71,23.66,9.71h81.71c13.39,0,24.82,4.73,34.27,14.18
				c9.45,9.45,14.18,20.87,14.18,34.27c0,13.39-4.73,24.82-14.18,34.27c-9.45,9.45-20.87,14.18-34.27,14.18h-130.15v-14.96h130.15
				c9.23,0,17.11-3.27,23.66-9.82c6.55-6.55,9.82-14.43,9.82-23.66c0-9.23-3.27-17.08-9.82-23.55c-6.55-6.47-14.44-9.71-23.66-9.71
				h-81.71c-13.39,0-24.82-4.72-34.27-14.18c-9.45-9.45-14.18-20.87-14.18-34.27c0-13.39,4.72-24.82,14.18-34.27
				c9.45-9.45,20.87-14.18,34.27-14.18H1622.42 M1628.42,270.13h-6h-130.15c-14.98,0-27.94,5.36-38.51,15.93
				c-10.57,10.57-15.93,23.53-15.93,38.51c0,14.99,5.36,27.94,15.93,38.51c10.57,10.57,23.52,15.93,38.51,15.93h81.71
				c7.65,0,14.01,2.61,19.45,7.98c5.41,5.35,8.04,11.66,8.04,19.28c0,7.64-2.64,14-8.06,19.42c-5.43,5.43-11.78,8.07-19.42,8.07
				h-130.15h-6v6v14.96v6h6h130.15c14.98,0,27.94-5.36,38.51-15.93c10.57-10.57,15.93-23.53,15.93-38.51
				c0-14.98-5.36-27.93-15.93-38.51c-10.58-10.57-23.53-15.93-38.51-15.93h-81.71c-7.66,0-14.02-2.61-19.45-7.98
				c-5.41-5.35-8.04-11.66-8.04-19.29c0-7.64,2.64-14,8.06-19.42c5.43-5.43,11.78-8.07,19.42-8.07h130.15h6v-6v-14.96V270.13
				L1628.42,270.13z"/>
		</g>
	</g>
</g>
</svg>
