<?xml version="1.0" encoding="utf-8"?>
<!-- Generator: Adobe Illustrator 25.0.1, SVG Export Plug-In . SVG Version: 6.00 Build 0)  -->
<svg version="1.1" xmlns="http://www.w3.org/2000/svg" xmlns:xlink="http://www.w3.org/1999/xlink" x="0px" y="0px"
	 viewBox="0 0 512 512" style="enable-background:new 0 0 512 512;" xml:space="preserve">
<style type="text/css">
	.st0{fill:none;stroke:#FFB4CA;stroke-width:12;stroke-linecap:round;stroke-linejoin:round;stroke-miterlimit:10;}
</style>
<g id="Layer_3">
	<path class="st0" d="M196.92,382.14"/>
	<path class="st0" d="M169.22,310.17"/>
	<path class="st0" d="M169,292"/>
	<path class="st0" d="M285.18,390.48"/>
	<path class="st0" d="M164.74,192.97"/>
	<path class="st0" d="M188.44,136.01"/>
	<path class="st0" d="M164.74,192.97l-26.39-21l-75.14,6.69l-24.18,80.5c0,0,57.13,45.48,57.13,45.48L46.3,352.23l46.36,115.51
		l111.72-0.13l55.21-52.7c0,0,26.83,18.74,26.83,18.74l91.13-218.93l32.09,56.17l67.53-28.97l-54.05-136.66
		C390.05,135.08,336.16,140.72,296,124s-59.86-52.98-61.99-97.45L98.96,84.5l27.02,68.33l62.46-16.81L164.74,192.97"/>
	<path class="st0" d="M174.52,169.47"/>
	<path class="st0" d="M164.74,192.97"/>
</g>
<g id="Layer_4">
	<path class="st0" d="M100.38,487"/>
	<polyline class="st0" points="180.53,275.03 238.82,274.97 285.18,390.48 259.58,414.92 	"/>
	<path class="st0" d="M180.53,275.03"/>
	<path class="st0" d="M127.11,275.1"/>
	<path class="st0" d="M96.17,304.62"/>
	<path class="st0" d="M204.37,467.62"/>
	<polyline class="st0" points="75,357 157.7,356.9 217.51,299.8 	"/>
	<line class="st0" x1="192.01" y1="442.41" x2="157.7" y2="356.9"/>
	<path class="st0" d="M243,35"/>
</g>
<g id="Layer_5">
	<path class="st0" d="M35.01,272.56"/>
	<polyline class="st0" points="96.17,304.62 98.06,306.13 173.2,299.44 197.37,218.95 164.74,192.97 	"/>
	<path class="st0" d="M98.06,306.13"/>
	<polyline class="st0" points="174.35,223.1 121.8,227.77 80.52,194.92 	"/>
	<line class="st0" x1="104.89" y1="284.07" x2="121.8" y2="227.77"/>
	<path class="st0" d="M349.38,189.96"/>
</g>
</svg>
